<svg width="26" height="21" xmlns="http://www.w3.org/2000/svg"><path d="M25.188 4.038h-8.125V.808A.81.81 0 0016.25 0h-6.5a.81.81 0 00-.813.808v3.23H.813A.81.81 0 000 4.846v3.635c.04 2.043 1.735 3.668 3.79 3.634h6.772v-1.211a1.62 1.62 0 011.626-1.616h1.624a1.62 1.62 0 011.626 1.616v1.211h6.772c2.055.034 3.75-1.591 3.79-3.634V4.846a.81.81 0 00-.813-.808zm-9.75 0h-4.876V1.615h4.876v2.423zM26 10.997v9.195a.81.81 0 01-.813.808H.813A.81.81 0 010 20.192v-9.195a4.648 4.648 0 003.79 1.926h6.772v1.212a1.62 1.62 0 001.626 1.615h1.624a1.62 1.62 0 001.626-1.615v-1.212h6.772A4.648 4.648 0 0026 10.997zm-13.813 3.945a.81.81 0 01-.812-.807v-3.231a.81.81 0 01.813-.808h1.624a.81.81 0 01.813.808v3.23a.81.81 0 01-.813.808h-1.624z" fill="#FFF"/></svg>