<svg xmlns="http://www.w3.org/2000/svg" width="180" height="56"><g fill="none" fill-rule="evenodd"><path fill="#004833" d="M0 0h180v56H0z"/><path fill="#FFF" d="M18.775 31.07c-.11-.767-.553-1.425-1.107-1.864-.443-.22-.997-.329-1.551-.329-.11 0-.332 0-.665.11l.443 4.826c.111 0 .554 0 .665-.11.554-.11 1.108-.33 1.44-.549.222-.219.554-.548.665-.877.11-.329.221-.768.11-1.206zm-7.421-5.045c.554-.11 1.883-.329 2.77-.329.664-.11 1.55-.11 2.325-.11.886 0 1.994.22 2.991.659 1.55.658 2.88 2.084 3.102 4.497a6.204 6.204 0 01-.444 2.96c-.443.988-1.107 1.756-1.993 2.304-.554.33-1.219.658-1.773.877-.775.22-1.55.33-2.326.44l.443 5.154-3.766.33-1.33-16.782zm144.443-7.238c-.11-1.316-.997-1.974-2.326-1.865-.333 0-.554.11-.776.11l.333 4.277h.554c.553 0 .996-.22 1.44-.548.443-.33.886-.987.775-1.974zm-7.2-4.607c.332-.11.997-.11 1.55-.22.444-.109 1.551-.218 2.105-.218 1.44-.11 2.437-.11 3.434.11 1.44.219 3.545 1.315 3.766 4.386.111 1.865-.664 3.29-1.218 3.839-.332.33-.776.768-.997.877v.11c.11.22 5.428 6.69 5.428 6.69l-4.542.44s-2.99-3.95-4.541-6.033h-.444l.554 6.361-3.766.33-1.33-16.672zm-11.63.878l8.971-.768.333 3.29-4.985.439.332 3.29 4.431-.329.333 3.29-4.431.33.332 3.4 5.095-.44.333 3.291-9.083.768-1.662-16.561zm-4.985 17.658h-.554l-5.76-9.433-4.099 10.31h-.554l-6.757-16.561 4.099-.33 3.101 7.678 3.434-8.116h.554l4.874 7.349 1.662-8.007 3.766-.329-3.766 17.439zm-21.6-6.91c-.222-2.742-2.437-4.716-5.096-4.497-2.77.22-4.652 2.523-4.43 5.374.22 2.742 2.436 4.717 5.316 4.497 2.77-.22 4.431-2.632 4.21-5.374zm4.098-.439c.443 4.936-2.99 8.994-8.086 9.433-4.985.438-9.194-2.962-9.637-7.787-.443-4.826 3.101-8.884 8.197-9.323 5.095-.439 9.083 2.852 9.526 7.677zm-23.483-.548c-.11-.768-.554-1.426-1.219-1.865-.443-.219-.996-.329-1.55-.329-.222 0-.443 0-.665.11l.443 4.826c.11 0 .554 0 .665-.11.554-.11 1.107-.329 1.44-.548.221-.22.554-.549.664-.878a1.51 1.51 0 00.222-1.206zm-7.422-5.045c.554-.11 1.883-.33 2.77-.33.664-.109 1.55-.109 2.326-.109.886 0 1.994.22 2.99.658 1.551.658 2.88 2.084 3.102 4.497.11 1.097-.11 2.084-.443 2.961-.443.987-1.108 1.755-1.994 2.303-.554.33-1.108.659-1.772.768-.776.22-1.55.33-2.326.439l.443 5.155-3.766.329-1.33-16.671zm-5.87 10.09l.664 7.02-3.987.329-.554-6.91-6.536-9.323 4.542-.438 3.655 5.483 2.77-6.032 4.209-.329-4.763 10.2zm-13.625-.329c-.11-1.535-.775-2.852-1.994-3.62-.775-.548-1.883-.767-3.101-.657-.443 0-.776.11-1.108.11l.886 9.541h.997c.997-.11 1.883-.438 2.658-1.096 1.108-.768 1.884-2.194 1.662-4.278zm4.21-.439c.332 3.181-.887 5.813-3.213 7.568-1.44 1.097-3.323 1.755-5.539 1.974-1.107.11-2.104.11-2.769.22h-1.55l-1.44-16.452c1.55-.22 3.766-.548 4.541-.658 2.548-.22 4.43.11 5.982.877 2.658 1.426 3.766 4.058 3.987 6.471zm-20.272 1.865c-.11-1.536-.775-2.852-1.883-3.62-.775-.548-1.883-.767-3.101-.658-.443 0-.776.11-1.108.11l.886 9.542h.997c.997-.11 1.883-.439 2.659-1.097 1.107-.767 1.772-2.303 1.55-4.277zm4.21-.439c.332 3.18-.886 5.813-3.213 7.568-1.44 1.097-3.323 1.755-5.538 1.974-1.108.11-2.105.11-2.77.22h-1.55l-1.44-16.452c.443-.11.997-.22 1.994-.33.997-.109 1.883-.219 2.658-.328 2.548-.22 4.431.11 5.982.877 2.547 1.426 3.655 4.058 3.877 6.471zm-21.822 5.045l-1.661-3.619-1.108 3.839 2.77-.22zm-3.655 3.51l-.776 2.523-4.098.329 6.092-17.658h.554l8.972 16.342-4.541.329-1.108-2.304-5.095.439z"/><path fill="#31953E" d="M168.757 27.232c0 1.316-.997 2.303-2.326 2.303a2.328 2.328 0 01-2.326-2.303c0-1.316 1.107-2.303 2.326-2.303 1.218 0 2.326 1.096 2.326 2.303"/></g></svg>