<svg width="26" height="17" xmlns="http://www.w3.org/2000/svg"><g fill="#FFF"><path d="M.584 10.46l.032-.002c.3-.018.53-.289.512-.604a23.242 23.242 0 01-.039-1.301c-.002-1.73.238-2.701.474-3.209V16.06c0 .487.377.883.842.883.464 0 .841-.396.841-.883V9.61h.316v6.448c0 .487.376.883.841.883.465 0 .842-.396.842-.883v-11.5c.14-.062.33-.136.558-.207a.54.54 0 00.473.29c.012 0 .023 0 .035-.002V16.06c0 .487.377.883.842.883.464 0 .841-.396.841-.883V9.61h.316v6.448c0 .487.376.883.841.883.465 0 .842-.396.842-.883V4.617a.55.55 0 00.273-.238c.085-.028.184-.058.297-.088l.02.006.016.004c.09.213.288.34.498.34h.035v11.418c0 .487.377.883.841.883.465 0 .842-.396.842-.883V9.61h.315v6.448c0 .487.377.883.842.883.465 0 .842-.396.842-.883V4.64l.035.002a.543.543 0 00.497-.34l.037-.01.021.005c.104.028.195.056.275.082a.55.55 0 00.274.238v11.442c0 .487.376.883.841.883.465 0 .842-.396.842-.883V9.61h.315v6.448c0 .487.377.883.842.883.464 0 .841-.396.841-.883V4.64l.035.002a.54.54 0 00.473-.29 5.633 5.633 0 01.558.207v11.5c0 .487.377.883.842.883.465 0 .842-.396.842-.883V9.61h.315v6.448c0 .487.377.883.842.883.464 0 .841-.396.841-.883V5.348c.04.086.081.186.121.302.192.558.353 1.474.353 2.903 0 .394-.012.826-.039 1.302a.562.562 0 00.544.604.557.557 0 00.544-.538c.027-.495.04-.95.04-1.368-.003-2.156-.331-3.35-.778-4.067a2.473 2.473 0 00-.163-.228.58.58 0 00-.3-.713 6.996 6.996 0 00-1.308-.436 1.598 1.598 0 01-1.928-.164 7.429 7.429 0 00-1.398.204 6.571 6.571 0 00-1.227-.183 1.612 1.612 0 01-1.05.391c-.41 0-.786-.157-1.077-.416a7.502 7.502 0 00-1.333.176 7.447 7.447 0 00-1.333-.176c-.29.26-.667.416-1.077.416-.41 0-.787-.157-1.078-.416a7.447 7.447 0 00-1.333.176 7.452 7.452 0 00-1.333-.176c-.29.26-.667.416-1.077.416-.398 0-.763-.147-1.05-.391a6.57 6.57 0 00-1.227.183 7.428 7.428 0 00-1.397-.204 1.6 1.6 0 01-1.928.164 7 7 0 00-1.308.435.58.58 0 00-.3.714 3.131 3.131 0 00-.474.863C.188 5.862.001 6.934 0 8.553c0 .418.013.873.04 1.368a.557.557 0 00.544.538z"/><ellipse cx="3.404" cy="1.607" rx="1.531" ry="1.607"/><ellipse cx="22.541" cy="1.607" rx="1.531" ry="1.607"/><ellipse cx="8.152" cy="1.607" rx="1.531" ry="1.607"/><ellipse cx="12.973" cy="1.607" rx="1.531" ry="1.607"/><ellipse cx="17.793" cy="1.607" rx="1.531" ry="1.607"/></g></svg>